<?xml version="1.0" standalone="no"?>
<!DOCTYPE svg PUBLIC "-//W3C//DTD SVG 20010904//EN"
 "http://www.w3.org/TR/2001/REC-SVG-20010904/DTD/svg10.dtd">
<svg version="1.0" xmlns="http://www.w3.org/2000/svg"
 width="1112.000000pt" height="255.000000pt" viewBox="0 0 1112.000000 255.000000"
 preserveAspectRatio="xMidYMid meet">

<g transform="translate(0.000000,255.000000) scale(0.100000,-0.100000)"
fill="#000000" stroke="none">
<path d="M1345 2061 l-179 -481 -260 -1 c-144 -1 -401 -4 -572 -8 l-311 -6
459 -295 c252 -162 458 -296 458 -298 0 -2 -64 -178 -141 -390 -78 -213 -157
-429 -175 -480 l-34 -94 37 23 c21 13 231 146 467 297 l429 272 31 -18 c17
-10 222 -140 456 -289 234 -148 430 -273 437 -277 9 -5 9 3 -1 31 -159 441
-808 2199 -915 2476 -5 13 -64 -133 -186 -462z m383 -855 c106 -286 190 -521
188 -523 -2 -2 -141 84 -371 231 -18 12 -40 1 -215 -110 -107 -68 -195 -122
-197 -120 -1 1 29 89 68 196 38 106 68 198 65 205 -2 6 -70 54 -150 105 -81
51 -149 97 -152 102 -3 4 84 8 193 8 l198 0 79 213 c90 242 86 231 96 220 4
-4 93 -242 198 -527z"/>
<path d="M6867 1994 c-176 -42 -290 -150 -318 -300 -19 -103 19 -228 96 -313
19 -21 35 -41 35 -44 0 -2 -29 -23 -64 -47 -91 -59 -161 -132 -198 -208 -28
-57 -33 -78 -36 -163 -4 -93 -3 -102 26 -164 39 -83 111 -152 205 -198 102
-51 175 -68 312 -74 186 -8 349 29 486 113 l59 36 79 -71 c43 -39 83 -71 89
-71 5 0 16 9 23 19 8 11 54 65 102 120 l88 100 -43 39 c-24 21 -58 52 -77 69
l-35 30 42 80 c37 72 92 219 92 248 0 12 -308 111 -317 101 -3 -2 -9 -23 -14
-45 -13 -58 -49 -151 -59 -151 -8 0 -210 178 -210 185 0 3 24 20 53 38 91 60
144 114 179 185 30 61 33 75 33 157 -1 77 -5 97 -27 140 -50 96 -151 167 -276
194 -72 15 -254 13 -325 -5z m264 -273 c58 -59 33 -136 -65 -202 -68 -45 -71
-44 -126 39 -37 55 -40 107 -9 146 28 35 52 45 117 45 46 1 58 -3 83 -28z
m-69 -727 c84 -75 153 -141 153 -148 0 -6 -27 -22 -60 -35 -78 -31 -207 -35
-277 -8 -68 26 -108 76 -108 133 0 24 6 59 14 77 13 32 97 117 115 117 6 0 79
-61 163 -136z"/>
<path d="M4053 1989 c-185 -14 -315 -62 -410 -151 -64 -61 -100 -131 -112
-218 -33 -241 104 -402 424 -499 55 -16 153 -44 218 -62 141 -38 181 -61 185
-108 13 -127 -237 -134 -593 -16 -71 23 -133 40 -137 36 -9 -8 -128 -344 -124
-348 2 -2 46 -19 97 -37 216 -78 478 -114 687 -96 264 23 424 106 499 258 26
53 28 66 28 177 0 112 -2 124 -28 172 -72 137 -212 222 -527 319 -189 57 -247
81 -269 108 -21 25 -9 58 29 80 74 43 340 19 539 -49 41 -14 76 -23 78 -21 12
11 132 339 128 346 -17 28 -284 93 -425 104 -150 13 -187 13 -287 5z"/>
<path d="M8491 1980 c-40 -9 -117 -39 -170 -65 -81 -41 -110 -62 -186 -139
-67 -67 -101 -112 -132 -171 -183 -350 -79 -778 240 -988 158 -104 294 -142
482 -134 183 8 350 71 464 175 l51 47 -135 137 -135 137 -43 -28 c-81 -55
-207 -78 -308 -56 -98 21 -202 106 -247 203 -23 48 -27 71 -27 142 0 72 4 94
29 147 50 109 145 181 268 204 92 17 165 5 256 -42 l76 -39 34 32 c19 18 79
81 133 140 l100 107 -58 46 c-76 60 -219 129 -310 149 -99 22 -286 20 -382 -4z"/>
<path d="M9780 1979 c-280 -73 -485 -278 -555 -554 -26 -100 -24 -275 4 -378
69 -260 260 -453 531 -539 64 -20 96 -23 220 -23 124 0 156 4 220 24 310 96
515 338 549 648 42 385 -196 726 -573 823 -107 27 -290 27 -396 -1z m344 -413
c71 -35 133 -99 169 -176 27 -55 31 -76 31 -145 -1 -147 -71 -263 -198 -325
-55 -27 -74 -32 -144 -32 -104 0 -181 32 -248 104 -71 76 -98 145 -99 248 0
75 4 93 32 152 49 103 129 172 230 198 62 15 169 4 227 -24z"/>
<path d="M4846 1958 c16 -25 1036 -1414 1048 -1426 10 -10 67 -13 251 -12 132
0 240 2 242 4 2 2 -109 158 -247 346 -138 188 -254 348 -257 356 -3 7 112 173
261 376 l265 363 -241 3 c-200 2 -244 0 -257 -12 -9 -8 -74 -96 -146 -195 -71
-99 -133 -180 -138 -181 -4 0 -61 73 -127 163 -66 89 -131 177 -145 195 l-26
32 -245 0 c-190 0 -243 -3 -238 -12z"/>
<path d="M10790 1940 c0 -5 14 -10 30 -10 l30 0 0 -65 c0 -37 4 -65 10 -65 6
0 10 28 10 65 l0 65 30 0 c17 0 30 5 30 10 0 6 -30 10 -70 10 -40 0 -70 -4
-70 -10z"/>
<path d="M10950 1875 c0 -43 4 -75 10 -75 6 0 10 20 10 45 0 51 12 57 36 20
21 -32 33 -31 61 3 l22 27 1 -47 c0 -36 4 -48 15 -48 12 0 15 15 15 75 0 88
-11 95 -53 35 -16 -22 -31 -40 -35 -40 -4 0 -18 18 -32 40 -38 61 -50 53 -50
-35z"/>
</g>
</svg>
