<?xml version="1.0" standalone="no"?>
<!DOCTYPE svg PUBLIC "-//W3C//DTD SVG 20010904//EN"
 "http://www.w3.org/TR/2001/REC-SVG-20010904/DTD/svg10.dtd">
<svg version="1.0" xmlns="http://www.w3.org/2000/svg"
 width="512.000000pt" height="512.000000pt" viewBox="0 0 512.000000 512.000000"
 preserveAspectRatio="xMidYMid meet">

<g transform="translate(0.000000,512.000000) scale(0.100000,-0.100000)"
fill="#000000" stroke="none">
<path d="M2729 5050 c-31 -9 -2661 -1908 -2701 -1951 -31 -32 -34 -54 -16 -94
10 -23 710 -531 2461 -1787 274 -196 285 -201 338 -149 l29 29 0 531 0 530 88
-5 c48 -3 136 -12 195 -20 541 -74 977 -385 1117 -798 118 -347 10 -724 -301
-1046 -35 -36 -71 -76 -81 -90 -53 -74 27 -155 137 -137 68 11 342 225 511
398 324 333 514 695 590 1124 27 150 25 442 -4 595 -72 384 -232 708 -494 997
-397 438 -994 710 -1646 749 l-112 7 0 524 c0 572 0 571 -57 590 -15 6 -40 7
-54 3z"/>
</g>
</svg>
